<svg width="145" height="24" viewBox="0 0 145 24" fill="none" xmlns="http://www.w3.org/2000/svg">
<path d="M10.0524 3.01709H5.11523V5.89709H10.0524V3.01709Z" fill="black"/>
<path d="M16.0875 3.01709H11.1504V5.89709H16.0875V3.01709Z" fill="black"/>
<path d="M47.6295 21.9427H52.5666V19.0627H47.6295V21.9427ZM54.6238 6.85703H48.4524V12.8913C48.4524 14.1256 48.0409 14.6742 47.0809 14.8113H16.9095V6.99417H9.36664C4.01807 6.99417 1.41235 9.05131 1.41235 13.0285C1.41235 14.2627 1.82378 15.3599 2.78378 16.3199C3.74378 17.417 4.84092 17.9656 6.21235 17.9656H49.4124C50.7838 17.9656 51.8809 17.6913 52.8409 17.0056C53.9381 16.3199 54.4866 15.2227 54.4866 13.8513V6.85703H54.6238ZM10.7381 14.8113H9.36664C8.13235 14.8113 7.3095 13.9885 7.3095 12.7542C7.3095 11.7942 7.44664 11.1085 7.85807 10.4227C8.13235 9.87417 8.68092 9.59988 9.2295 9.59988C10.0524 9.59988 10.7381 10.1485 10.7381 10.9713V14.8113ZM41.5952 21.9427H46.5324V19.0627H41.5952V21.9427ZM62.5781 3.01703H57.6409V5.89703H62.5781V3.01703ZM84.9324 9.05131H76.2924C76.9781 6.99417 78.4866 6.03417 80.9552 6.03417H91.6524V3.01703H80.1324C77.6638 3.01703 75.4695 3.70274 73.5495 5.07417C71.2181 6.71988 69.9838 9.05131 69.9838 12.0685H81.9152C83.1495 12.0685 83.6981 12.617 83.6981 13.8513V14.8113H63.2638V6.99417H57.2295V17.1427C57.2295 17.8285 57.0924 18.377 56.9552 18.6513C56.6809 19.0627 56.2695 19.1999 55.7209 19.1999C55.4466 19.1999 55.0352 19.1999 54.7609 19.1999V21.9427H57.6409C59.6981 21.9427 61.2066 21.6685 62.0295 20.9827C62.7152 20.4342 63.1266 19.4742 63.1266 17.9656H91.5152V14.1256C91.6524 10.697 89.3209 9.05131 84.9324 9.05131ZM127.447 12.8913C127.447 14.1256 127.035 14.6742 126.075 14.8113H123.195C123.195 12.8913 122.372 11.3827 120.864 10.5599C119.492 9.73703 117.572 9.3256 114.967 9.3256C112.361 9.3256 110.304 9.73703 108.932 10.5599C107.424 11.3827 106.601 12.8913 106.601 14.8113H100.155V6.99417H94.1209V17.1427C94.1209 17.8285 93.9838 18.377 93.8466 18.6513C93.5724 19.0627 93.1609 19.1999 92.4752 19.1999H91.5152V21.9427C92.6124 21.9427 93.5724 21.9427 94.5324 21.9427C96.5895 21.9427 98.0981 21.5313 98.9209 20.8456C99.6066 20.297 100.018 19.337 100.018 17.8285H107.287C108.384 19.6113 110.989 20.4342 114.829 20.4342C118.669 20.4342 121.275 19.6113 122.372 17.8285H128.407C129.778 17.8285 130.875 17.5542 131.835 17.0056C132.932 16.3199 133.481 15.2227 133.481 13.8513V2.87988H127.31V12.8913H127.447ZM114.967 17.9656C113.595 17.9656 113.047 17.0056 113.047 15.0856C113.047 13.1656 113.732 12.0685 114.967 12.0685C116.338 12.0685 117.024 13.0285 117.024 15.0856C117.024 17.0056 116.338 17.9656 114.967 17.9656ZM136.224 3.01703V17.9656H142.395V3.01703H136.224Z" fill="black"/>
</svg>
